<svg xmlns="http://www.w3.org/2000/svg" viewBox="0 0 638.44 198.45"><defs><style>.cls-1{fill:#fff;}</style></defs><title>White</title><g id="Layer_2" data-name="Layer 2"><g id="Layer_1-2" data-name="Layer 1"><path class="cls-1" d="M171.51,135.27H13.25s2,6.76,15.89,19.1c1.47,1.35,3,2.66,4.56,3.91l.61.48c12.57,10.21,32.51,23.5,64,39.37a3,3,0,0,0,4.3-3.23l-2.28-12.32s12.8-4.73,24.13-9.43a92.13,92.13,0,0,0,12.8-5.74,31,31,0,0,0,2.87-1.62h0A91.56,91.56,0,0,0,171.51,135.27Z"/><path class="cls-1" d="M92.38,0C41.36,0,0,40.23,0,89.85a87.51,87.51,0,0,0,9.33,39.38H42l.42-29a3,3,0,0,0-3-3H36a1,1,0,0,1-.6-1.8l55.15-40.8a3,3,0,0,1,3.59,0l18.37,13.75a2,2,0,0,0,3.19-1.6V63.36a3,3,0,0,1,3-3l6-.12a3,3,0,0,1,3.06,3V78a2,2,0,0,0,.78,1.59l18,13.82a1,1,0,0,1-.58,1.79l-2.55.07a3,3,0,0,0-2.91,3l.21,30.91h34.8a87.51,87.51,0,0,0,9.33-39.38C184.76,40.23,143.4,0,92.38,0Z"/><rect class="cls-1" x="76.09" y="97.17" width="13.14" height="12.33" rx="1"/><rect class="cls-1" x="76.09" y="113.31" width="13.14" height="12.33" rx="1"/><rect class="cls-1" x="94.99" y="97.17" width="13.14" height="12.33" rx="1"/><rect class="cls-1" x="94.99" y="113.31" width="13.14" height="12.33" rx="1"/><path class="cls-1" d="M221.74,124.31V60a1.4,1.4,0,0,1,1.4-1.4h8.12a1.4,1.4,0,0,1,1.39,1.4v54.55a1.4,1.4,0,0,0,1.4,1.4h21.59a1.4,1.4,0,0,1,1.4,1.39v7a1.4,1.4,0,0,1-1.4,1.4h-32.5A1.4,1.4,0,0,1,221.74,124.31Z"/><path class="cls-1" d="M300.82,105.45H269a1.41,1.41,0,0,0-1.39,1.6,13.79,13.79,0,0,0,3.47,7.91,11.4,11.4,0,0,0,8.67,3.41,14.84,14.84,0,0,0,8-2,15.66,15.66,0,0,0,4.94-5.36,1.39,1.39,0,0,1,1.86-.48l5.93,3.31a1.39,1.39,0,0,1,.53,1.93,24.68,24.68,0,0,1-8.36,8.53A24.4,24.4,0,0,1,280,127.5q-10.46,0-16.64-6.37t-6.19-17q0-10.23,6.39-16.8T280,80.74q10.49,0,16.36,6t5.87,16.82v.48A1.4,1.4,0,0,1,300.82,105.45Zm-10.6-6.69A1.41,1.41,0,0,0,291.59,97a9.86,9.86,0,0,0-3.26-5.41q-3-2.46-8.16-2.46a12.27,12.27,0,0,0-7.89,2.39,11.71,11.71,0,0,0-3.61,5.35A1.4,1.4,0,0,0,270,98.76Z"/><path class="cls-1" d="M340.22,54.66h7.16a1.39,1.39,0,0,1,1.39,1.39v68.26a1.4,1.4,0,0,1-1.39,1.4h-7.16a1.4,1.4,0,0,1-1.39-1.4v-.44a1.4,1.4,0,0,0-2.4-1,16,16,0,0,1-3.82,2.76,17.36,17.36,0,0,1-8.13,1.84q-9.21,0-14.51-6.31t-5.29-17.25q0-10.41,5.4-16.8A19.12,19.12,0,0,1,333.3,83a13.1,13.1,0,0,1,3.12,2.54,1.39,1.39,0,0,0,2.41-1V56.05A1.39,1.39,0,0,1,340.22,54.66Zm-1.12,49.18q0-6.74-3.14-10.49a10.8,10.8,0,0,0-8.78-3.76,10.94,10.94,0,0,0-8.87,3.87q-3.22,3.87-3.23,10.75t3.12,10.68q3.12,3.77,8.8,3.76a10.79,10.79,0,0,0,8.75-4.06Q339.1,110.54,339.1,103.84Z"/><path class="cls-1" d="M357,63.46a5.93,5.93,0,0,1,1.86-4.36,6.07,6.07,0,0,1,4.42-1.83,6,6,0,0,1,6.19,6.19,6.13,6.13,0,0,1-1.79,4.47,5.93,5.93,0,0,1-4.4,1.81A6.35,6.35,0,0,1,357,63.46Zm1.33,60.85V83.65a1.4,1.4,0,0,1,1.4-1.4h7.15a1.4,1.4,0,0,1,1.4,1.4v40.66a1.4,1.4,0,0,1-1.4,1.4h-7.15A1.4,1.4,0,0,1,358.29,124.31Z"/><path class="cls-1" d="M418.64,123q0,12.75-5.09,17.95t-17.14,5.2q-9,0-14.35-3.78a12,12,0,0,1-5.34-8.49,1.41,1.41,0,0,1,1.39-1.58l8,0a1.41,1.41,0,0,1,1.36,1.06,5.2,5.2,0,0,0,2.43,3.2,12.87,12.87,0,0,0,6.69,1.46q6.38,0,9.17-2.79t2.84-9.35l0-1.92a1.39,1.39,0,0,0-2.38-1,15.55,15.55,0,0,1-3.77,2.72,17.39,17.39,0,0,1-8.13,1.84q-9.23,0-14.51-6.31t-5.3-17.25q0-10.41,5.41-16.8A19.12,19.12,0,0,1,403.17,83a12.85,12.85,0,0,1,3.11,2.54,1.39,1.39,0,0,0,2.41-1v-.89a1.4,1.4,0,0,1,1.4-1.4h7.15a1.4,1.4,0,0,1,1.4,1.4ZM409,103.84q0-6.74-3.14-10.49a10.8,10.8,0,0,0-8.78-3.76,10.93,10.93,0,0,0-8.87,3.87Q385,97.33,385,104.21t3.12,10.68q3.1,3.77,8.8,3.76a10.81,10.81,0,0,0,8.73-4.08Q409,110.49,409,103.84Z"/><path class="cls-1" d="M428,124.31V60a1.4,1.4,0,0,1,1.4-1.4h17a115.16,115.16,0,0,1,15.88.73A23.91,23.91,0,0,1,470,61.86a14.26,14.26,0,0,1,5.66,5.52,16,16,0,0,1,1.95,8q0,5.73-2.91,9.1A14.36,14.36,0,0,1,470,87.93a1.39,1.39,0,0,0,.2,2.56,14.58,14.58,0,0,1,6.44,4.12q4,4.47,4,11.94a19,19,0,0,1-2.27,9.44,15.69,15.69,0,0,1-6.48,6.33,26.73,26.73,0,0,1-8.48,2.61,121.51,121.51,0,0,1-16.5.78H429.37A1.4,1.4,0,0,1,428,124.31Zm17-40.29a1.4,1.4,0,0,0,1.4,1.4h2.27c4.52,0,7.63-.5,9.31-1.49s2.52-2.72,2.52-5.16-.79-4.32-2.36-5.34-4.64-1.54-9.19-1.54h-2.55a1.4,1.4,0,0,0-1.4,1.4Zm0,26.59a1.4,1.4,0,0,0,1.4,1.39h5q6.51,0,9.22-1.62t2.7-5.44q0-4.22-2.48-5.89t-9.16-1.67h-5.3a1.4,1.4,0,0,0-1.4,1.4Z"/><path class="cls-1" d="M534.9,102.7a23.6,23.6,0,0,1-1.95,9.49,24.81,24.81,0,0,1-5.66,8.06,25.82,25.82,0,0,1-8.41,5.41,27.69,27.69,0,0,1-19.85,0,24.74,24.74,0,0,1-8.32-5.41,23.66,23.66,0,0,1-5.59-8,24,24,0,0,1-1.93-9.56,24.45,24.45,0,0,1,1.9-9.58A25.32,25.32,0,0,1,499,79.73a27.76,27.76,0,0,1,10-1.79,27.48,27.48,0,0,1,10,1.79,25.51,25.51,0,0,1,14,13.43A23.89,23.89,0,0,1,534.9,102.7Zm-16.23,0c0-3.46-.87-6.17-2.61-8.16a9.88,9.88,0,0,0-14.14,0c-1.73,2-2.59,4.7-2.59,8.16s.85,6.16,2.57,8.13a10,10,0,0,0,14.18,0Q518.67,107.88,518.67,102.7Z"/><path class="cls-1" d="M540.06,124.31V56.05a1.4,1.4,0,0,1,1.4-1.39H555a1.4,1.4,0,0,1,1.4,1.39v68.26a1.4,1.4,0,0,1-1.4,1.4H541.46A1.4,1.4,0,0,1,540.06,124.31Z"/><path class="cls-1" d="M563.83,65q0-5.34,5.45-8.4a1.61,1.61,0,0,1,.43-.17q6-1.34,9.55,2.2A8.64,8.64,0,0,1,581.85,65q0,5.34-5.2,8.43a1.61,1.61,0,0,1-.38.16q-5.94,1.74-9.78-2.17A8.85,8.85,0,0,1,563.83,65Zm.83,59.34V80.81a1.4,1.4,0,0,1,1.4-1.4h13.57a1.4,1.4,0,0,1,1.39,1.4v43.5a1.4,1.4,0,0,1-1.39,1.4H566.06A1.4,1.4,0,0,1,564.66,124.31Z"/><path class="cls-1" d="M637.05,79.41a1.4,1.4,0,0,1,1.39,1.4v44.81q0,10.5-6.39,15.51t-19.78,5q-10.83,0-17-4a13.53,13.53,0,0,1-6.36-9.75,1.4,1.4,0,0,1,1.39-1.59h14.32a1.41,1.41,0,0,1,1.3.91,4.83,4.83,0,0,0,2.16,2.46,10.43,10.43,0,0,0,5.38,1.21q5.28,0,7.27-2.54t2-10.71h0a1.39,1.39,0,0,0-2.4-.95,15.62,15.62,0,0,1-4.15,3.22,19.88,19.88,0,0,1-9.49,2.13A18.2,18.2,0,0,1,592,119.91q-5.55-6.63-5.55-17.67t5.8-17.72q5.79-6.57,15.61-6.58a17.77,17.77,0,0,1,9,2.16,16.24,16.24,0,0,1,4.1,3.39,1.39,1.39,0,0,0,2.43-.93V80.81a1.4,1.4,0,0,1,1.4-1.4Zm-13,23c0-3.57-1-6.38-2.86-8.41A10.34,10.34,0,0,0,613.32,91a10.55,10.55,0,0,0-8,3.05c-1.94,2-2.91,4.84-2.91,8.41s1,6.34,2.91,8.39a10.49,10.49,0,0,0,8,3.07,10.31,10.31,0,0,0,7.89-3.07C623.13,108.76,624.09,106,624.09,102.42Z"/></g></g></svg>