<svg viewBox="0 0 24 24" fill="none" xmlns="http://www.w3.org/2000/svg">
<rect fill="white"/>
<path fill-rule="evenodd" clip-rule="evenodd" d="M12 7C9.23858 7 7 9.23858 7 12V13H2V11H5.07089C5.55612 7.60771 8.47353 5 12 5C13.9795 5 15.4572 5.90019 16.4105 6.75564C16.8881 7.18417 17.2461 7.61132 17.4862 7.93307C17.6067 8.09461 17.699 8.23148 17.7629 8.3313C17.795 8.38126 17.82 8.42212 17.8381 8.45234C17.8472 8.46746 17.8545 8.47993 17.8601 8.48958L17.8672 8.5019L17.8698 8.50643L17.8708 8.50828C17.871 8.50866 17.8717 8.50985 17 8.99986C16.1283 9.48987 16.1285 9.49022 16.1287 9.49055L16.1296 9.4922L16.1224 9.48C16.1141 9.46628 16.0997 9.44269 16.0792 9.41063C16.038 9.34639 15.9726 9.24889 15.8833 9.1292C15.7037 8.88847 15.433 8.56566 15.0748 8.24422C14.3566 7.59974 13.3342 7 12 7ZM12 13C12.5523 13 13 12.5523 13 12C13 11.4477 12.5523 11 12 11C11.4477 11 11 11.4477 11 12C11 12.5523 11.4477 13 12 13ZM12 15C13.6569 15 15 13.6569 15 12C15 10.3431 13.6569 9 12 9C10.3431 9 9 10.3431 9 12C9 13.6569 10.3431 15 12 15ZM17 12C17 14.7614 14.7614 17 12 17C10.6496 17 9.4874 16.3868 8.62267 15.7118C8.1958 15.3786 7.85977 15.0442 7.63192 14.7947C7.5185 14.6704 7.43327 14.5687 7.37835 14.5007C7.35093 14.4667 7.33118 14.4413 7.31937 14.4259L7.30776 14.4106C7.30795 14.4109 7.30815 14.4112 6.5 15.0001C5.69185 15.5891 5.69256 15.5901 5.69278 15.5904L5.69392 15.5919L5.69682 15.5959L5.70507 15.607C5.71166 15.6158 5.72043 15.6275 5.73135 15.6417C5.75319 15.6702 5.78364 15.7093 5.82248 15.7574C5.90007 15.8534 6.01153 15.9861 6.15485 16.1431C6.44049 16.456 6.85814 16.8716 7.39205 17.2884C8.44889 18.1133 10.0366 19 12 19C15.5265 19 18.4439 16.3923 18.9291 13H22V11H17V12Z" fill="#90A8A4"/>
</svg>
