<svg viewBox="0 0 24 24" fill="none" xmlns="http://www.w3.org/2000/svg">
<rect fill="white"/>
<path fill-rule="evenodd" clip-rule="evenodd" d="M12 1.91406L22 6.13628V21.9995H20V7.4628L12 4.08503L4 7.4628V21.9995H2V6.13628L12 1.91406ZM14 12C14 10.8954 13.1046 10 12 10C10.8954 10 10 10.8954 10 12C10 13.1046 10.8954 14 12 14C13.1046 14 14 13.1046 14 12ZM14.6458 15C15.4762 14.2671 16 13.1947 16 12C16 9.79086 14.2091 8 12 8C9.79086 8 8 9.79086 8 12C8 13.1947 8.52376 14.2671 9.35418 15C8.52376 15.7329 8 16.8053 8 18C8 20.2091 9.79086 22 12 22C14.2091 22 16 20.2091 16 18C16 16.8053 15.4762 15.7329 14.6458 15ZM12 16C10.8954 16 10 16.8954 10 18C10 19.1046 10.8954 20 12 20C13.1046 20 14 19.1046 14 18C14 16.8954 13.1046 16 12 16Z" fill="#90A8A4"/>
</svg>
