<?xml version="1.0" standalone="no"?>
<!DOCTYPE svg PUBLIC "-//W3C//DTD SVG 20010904//EN"
 "http://www.w3.org/TR/2001/REC-SVG-20010904/DTD/svg10.dtd">
<svg version="1.0" xmlns="http://www.w3.org/2000/svg"
 width="320.000000pt" height="320.000000pt" viewBox="0 0 320.000000 320.000000"
 preserveAspectRatio="xMidYMid meet">

<g transform="translate(0.000000,320.000000) scale(0.100000,-0.100000)"
fill="#000000" stroke="none">
<path d="M2640 3159 c-292 -34 -505 -125 -665 -284 -128 -126 -198 -251 -248
-440 l-24 -90 -74 -27 c-94 -34 -95 -34 -113 1 -9 16 -24 31 -35 34 -25 6
-293 -38 -321 -53 -27 -14 -43 -47 -36 -74 5 -20 -4 -25 -117 -60 -435 -134
-836 -367 -941 -547 -95 -164 24 -359 219 -359 92 0 130 15 270 108 170 113
340 198 520 258 131 44 148 47 158 33 28 -37 50 -40 174 -18 213 37 206 34
220 89 9 34 11 35 61 38 l53 3 24 -54 c33 -76 34 -91 9 -95 -12 -2 -30 -12
-39 -22 -15 -16 -16 -40 -13 -190 l3 -171 34 -28 34 -28 -18 -124 c-21 -155
-64 -322 -110 -433 -19 -47 -51 -124 -70 -171 -28 -69 -35 -98 -35 -153 0
-198 185 -327 348 -243 193 100 382 599 424 1121 3 30 7 35 35 41 60 12 63 20
62 148 -1 64 -4 143 -8 176 -5 53 -9 62 -38 80 -30 18 -32 24 -33 73 0 91 17
113 140 177 63 33 140 84 182 119 90 77 459 456 478 491 20 37 1 68 -62 99
-86 42 -172 59 -288 59 -114 0 -195 -16 -292 -60 -32 -14 -61 -23 -65 -20 -10
10 25 91 68 158 76 116 202 231 342 309 73 41 89 69 60 108 -19 26 -25 27
-109 28 -49 1 -123 -2 -164 -7z m-30 -135 c0 -3 -24 -28 -54 -55 -121 -111
-222 -277 -251 -414 -19 -91 -19 -111 5 -246 35 -202 25 -300 -46 -441 -26
-51 -35 -84 -40 -146 l-7 -80 -36 -6 c-20 -3 -84 -6 -142 -6 l-107 0 -47 128
c-66 180 -78 243 -71 382 20 424 198 700 527 821 109 40 269 78 269 63z m343
-523 c20 -8 26 -15 20 -25 -20 -36 -385 -395 -435 -429 -91 -60 -88 -61 -81
30 4 56 0 112 -12 184 -10 57 -18 110 -19 118 -2 28 158 109 259 131 50 11
231 5 268 -9z m-1540 -303 c9 -33 77 -397 77 -407 0 -5 -32 -15 -70 -21 -71
-12 -71 -12 -96 15 -23 25 -30 27 -74 22 -77 -9 -345 -103 -485 -171 -71 -34
-180 -97 -241 -138 -151 -103 -162 -108 -236 -108 -67 0 -95 14 -117 57 -33
65 2 134 116 226 200 162 487 296 870 407 82 24 103 40 103 80 0 34 6 38 62
49 73 15 85 13 91 -11z m267 -8 c0 -8 7 -140 13 -260 2 -35 2 -35 -44 -38
l-46 -3 -26 128 c-16 81 -22 132 -16 138 11 11 88 44 107 44 6 1 12 -3 12 -9z
m618 -767 c3 -82 3 -83 -22 -83 -51 0 -59 -20 -76 -200 -29 -297 -101 -573
-207 -785 -86 -172 -157 -224 -243 -180 -40 21 -60 63 -60 130 0 46 10 80 60
196 95 221 149 446 165 690 7 95 6 96 -20 117 -14 11 -31 22 -37 24 -6 2 -13
39 -16 86 l-5 81 99 4 c55 2 158 3 229 3 l130 -1 3 -82z"/>
<path d="M2050 2216 c-92 -30 -105 -169 -21 -219 86 -51 204 25 186 121 -8 41
-30 78 -53 87 -42 18 -81 21 -112 11z"/>
</g>
</svg>
