<svg viewBox="0 0 24 24" fill="none" xmlns="http://www.w3.org/2000/svg">
<rect fill="white"/>
<path fill-rule="evenodd" clip-rule="evenodd" d="M16.2836 7.84863C16.6028 7.73622 16.9604 7.47085 17.2142 7.03113C17.4681 6.5914 17.5192 6.14909 17.4569 5.81643C17.3957 5.48921 17.2427 5.31548 17.0982 5.23209C16.9538 5.14869 16.7268 5.10305 16.4128 5.21362C16.0936 5.32603 15.7361 5.5914 15.4822 6.03113C15.2283 6.47085 15.1773 6.91316 15.2395 7.24582C15.3008 7.57304 15.4538 7.74677 15.5982 7.83016C15.7427 7.91356 15.9696 7.9592 16.2836 7.84863ZM14.5982 9.56222C16.0331 10.3906 17.9798 9.70515 18.9463 8.03113C19.9128 6.3571 19.5331 4.32846 18.0982 3.50004C16.6633 2.67161 14.7166 3.3571 13.7501 5.03113C12.7836 6.70515 13.1633 8.73379 14.5982 9.56222ZM9.36749 11.317C10.5754 9.38975 13.4049 9.45522 14.5224 11.4362L16.018 14.0875C16.0686 14.1773 16.1329 14.2588 16.2085 14.329L18.7792 16.716C20.9621 18.743 19.1757 22.3685 16.2384 21.8726L12.1664 21.1851C12.0562 21.1665 11.9437 21.1665 11.8335 21.1851L7.48024 21.92C4.58008 22.4097 2.78061 18.8672 4.88651 16.8139L7.46382 14.301C7.52073 14.2455 7.57083 14.1835 7.61304 14.1161L9.36749 11.317ZM12.7804 12.4189C12.4079 11.7585 11.4648 11.7367 11.0621 12.3791L9.30768 15.1783C9.18104 15.3803 9.03076 15.5666 8.86002 15.733L6.28271 18.2459C5.58075 18.9303 6.18057 20.1112 7.14729 19.9479L11.5005 19.213C11.8311 19.1572 12.1687 19.1572 12.4994 19.213L16.5713 19.9005C17.5504 20.0658 18.1459 18.8573 17.4183 18.1816L14.8476 15.7946C14.6208 15.584 14.428 15.3397 14.276 15.0702L12.7804 12.4189ZM20.0923 12.0572C19.9165 12.3618 19.6766 12.5319 19.4844 12.5995C19.2975 12.6654 19.207 12.6255 19.1784 12.609C19.1498 12.5925 19.0701 12.5341 19.0336 12.3393C18.9962 12.139 19.0235 11.8462 19.1994 11.5416C19.3752 11.2371 19.6151 11.067 19.8073 10.9993C19.9942 10.9335 20.0846 10.9734 20.1132 10.9899C20.1418 11.0064 20.2216 11.0647 20.258 11.2596C20.2955 11.4598 20.2681 11.7526 20.0923 12.0572ZM21.8244 13.0572C21.0139 14.4609 19.3816 15.0357 18.1784 14.341C16.9753 13.6464 16.6569 11.9453 17.4673 10.5417C18.2777 9.13796 19.9101 8.56316 21.1132 9.25781C22.3164 9.95246 22.6348 11.6535 21.8244 13.0572ZM3.80788 12.5995C3.61572 12.5319 3.3758 12.3618 3.19996 12.0572C3.02413 11.7526 2.99676 11.4598 3.03424 11.2596C3.0707 11.0647 3.15045 11.0064 3.17904 10.9899C3.20763 10.9734 3.29806 10.9335 3.485 10.9993C3.67716 11.067 3.91708 11.2371 4.09291 11.5416C4.26875 11.8462 4.29612 12.139 4.25864 12.3393C4.22217 12.5341 4.14243 12.5925 4.11384 12.609C4.08525 12.6255 3.99482 12.6654 3.80788 12.5995ZM5.11384 14.341C3.91067 15.0357 2.27834 14.4609 1.46791 13.0572C0.657491 11.6535 0.975872 9.95246 2.17904 9.25781C3.3822 8.56316 5.01454 9.13796 5.82496 10.5417C6.63539 11.9453 6.31701 13.6464 5.11384 14.341ZM6.48233 7.03113C6.7362 7.47085 7.09373 7.73622 7.41295 7.84863C7.72696 7.9592 7.95391 7.91356 8.09835 7.83016C8.2428 7.74677 8.3958 7.57304 8.45705 7.24582C8.51931 6.91316 8.46825 6.47085 8.21438 6.03113C7.96051 5.5914 7.60298 5.32603 7.28376 5.21362C6.96975 5.10305 6.7428 5.14869 6.59835 5.23209C6.45391 5.31548 6.30091 5.48921 6.23966 5.81643C6.1774 6.14909 6.22846 6.5914 6.48233 7.03113ZM4.75028 8.03113C5.71678 9.70515 7.66348 10.3906 9.09835 9.56222C10.5332 8.73379 10.9129 6.70515 9.94643 5.03113C8.97993 3.3571 7.03323 2.67161 5.59835 3.50004C4.16348 4.32846 3.78378 6.3571 4.75028 8.03113Z" fill="#90A8A4"/>
</svg>
