<svg viewBox="0 0 24 24" fill="none" xmlns="http://www.w3.org/2000/svg">
<rect fill="white"/>
<path fill-rule="evenodd" clip-rule="evenodd" d="M1.58594 5.00008L5.29304 1.29297L6.70726 2.70718L5.41436 4.00008L13.5859 4.00008L12.293 2.70718L13.7073 1.29297L17.4144 5.00007L13.7073 8.70718L12.293 7.29297L13.5859 6.00007L5.41436 6.00008L6.70726 7.29297L5.29304 8.70718L1.58594 5.00008ZM19.0001 6.58609L22.7072 10.2932L21.293 11.7074L20.0001 10.4145V18.5861L21.293 17.2932L22.7072 18.7074L19.0001 22.4145L15.293 18.7074L16.7072 17.2932L18.0001 18.5861V10.4145L16.7072 11.7074L15.293 10.2932L19.0001 6.58609ZM4 12.0002H12V20.0002H4V12.0002ZM2 22.0002V10.0002H14V22.0002H2Z" fill="#90A8A4"/>
</svg>
