<svg viewBox="0 0 24 24" fill="none" xmlns="http://www.w3.org/2000/svg">
<rect fill="white"/>
<path fill-rule="evenodd" clip-rule="evenodd" d="M6 5C6 4.44772 6.44772 4 7 4H9C9.55228 4 10 4.44772 10 5V5.17157C9.95021 5.18917 9.90085 5.20811 9.85195 5.22836C9.48797 5.37913 9.15726 5.6001 8.87868 5.87868C8.83927 5.91809 8.801 5.95855 8.76393 6C8.7355 6.03179 8.70776 6.06416 8.68074 6.09709C8.494 6.32469 8.34143 6.57897 8.22836 6.85195C8.0776 7.21593 8 7.60603 8 8H11H14C14 7.60603 13.9224 7.21593 13.7716 6.85195C13.6422 6.53947 13.461 6.2515 13.2361 6C13.2358 5.99975 13.2356 5.9995 13.2354 5.99924C13.1985 5.95806 13.1605 5.91785 13.1213 5.87868C12.8427 5.6001 12.512 5.37913 12.1481 5.22836C12.0992 5.20811 12.0498 5.18917 12 5.17157V5C12 3.34315 10.6569 2 9 2H7C5.34315 2 4 3.34315 4 5V10H2V15C2 17.7614 4.23858 20 7 20V22H9V20H15V22H17V20C19.7614 20 22 17.7614 22 15V10H6V5ZM4 15V12H20V15C20 16.6569 18.6569 18 17 18H7C5.34315 18 4 16.6569 4 15Z" fill="#90A8A4"/>
</svg>
