<?xml version="1.0" standalone="no"?>
<!DOCTYPE svg PUBLIC "-//W3C//DTD SVG 20010904//EN"
 "http://www.w3.org/TR/2001/REC-SVG-20010904/DTD/svg10.dtd">
<svg version="1.0" xmlns="http://www.w3.org/2000/svg"
 width="980.000000pt" height="920.000000pt" viewBox="0 0 980.000000 920.000000"
 preserveAspectRatio="xMidYMid meet">

<g transform="translate(0.000000,920.000000) scale(0.100000,-0.100000)"
fill="#000000" stroke="none">
<path d="M1175 9185 c-51 -27 -55 -39 -55 -174 0 -177 15 -290 55 -408 129
-386 370 -720 728 -1009 266 -214 588 -365 937 -440 103 -21 160 -27 323 -31
333 -9 581 36 867 157 63 27 121 50 129 52 35 7 62 -242 68 -619 5 -276 -6
-535 -22 -552 -3 -2 -96 -14 -208 -27 -450 -50 -782 -146 -1127 -325 -253
-131 -418 -257 -650 -495 -75 -77 -160 -175 -190 -219 l-55 -80 -964 -5 -963
-5 -19 -24 c-47 -58 -46 -61 127 -230 531 -521 2551 -2418 2816 -2644 30 -26
64 -47 75 -47 72 0 3985 963 4362 1074 46 13 90 31 98 39 26 26 196 596 368
1237 127 470 142 553 108 581 -13 12 -141 15 -704 19 l-688 5 -92 120 c-171
222 -416 441 -651 583 -113 69 -366 190 -491 237 -239 88 -524 153 -794 181
l-165 17 7 41 c12 77 24 351 25 555 0 189 1 203 18 196 193 -81 318 -105 540
-106 270 0 459 44 697 161 434 214 740 605 847 1081 20 90 23 131 23 304 0
164 -3 210 -18 258 -39 126 -83 127 -241 7 -183 -138 -361 -191 -891 -265
-382 -54 -528 -96 -676 -195 -178 -120 -262 -225 -360 -453 l-48 -110 -10 39
c-5 22 -22 91 -36 154 -135 594 -420 967 -879 1150 -41 16 -121 41 -176 55
-213 54 -246 56 -990 65 -760 8 -768 9 -897 69 -83 40 -121 45 -158 26z m241
-255 c147 -31 306 -39 739 -40 507 -1 868 -14 965 -34 475 -101 748 -366 915
-886 42 -133 95 -359 95 -409 0 -16 -18 -30 -77 -60 -289 -144 -540 -197 -883
-188 -298 8 -497 56 -755 182 -217 106 -402 238 -583 418 -279 275 -433 539
-508 869 -25 111 -30 168 -15 168 5 0 53 -9 107 -20z m4949 -554 c18 -170 -39
-415 -141 -603 -187 -346 -534 -616 -923 -721 -86 -23 -115 -26 -281 -26 -202
-1 -248 6 -430 66 -63 21 -104 41 -123 60 -32 32 -32 32 0 228 68 418 247 649
578 745 50 14 187 39 305 56 585 81 794 132 940 229 25 16 50 30 56 30 7 0 15
-27 19 -64z m-1895 -2436 c195 -11 360 -31 465 -55 538 -124 1023 -402 1321
-758 l78 -92 -90 -6 c-302 -22 -3989 -18 -4010 4 -4 4 1 19 11 34 31 47 235
252 320 320 268 218 616 385 1001 482 304 76 515 93 904 71z m3310 -1137 c0
-21 -128 -483 -297 -1076 -108 -380 -118 -410 -142 -419 -29 -11 -1012 -255
-2211 -549 -448 -110 -1088 -267 -1422 -350 -334 -82 -614 -149 -623 -149 -17
0 -2725 2540 -2725 2556 0 2 1669 4 3710 4 3527 0 3710 -1 3710 -17z"/>
<path d="M8655 4964 c-11 -3 -30 -7 -41 -9 -45 -10 -85 -134 -460 -1434 -111
-387 -206 -707 -211 -711 -9 -8 -553 -145 -1473 -369 -2806 -684 -4468 -1098
-4808 -1197 -251 -73 -289 -102 -224 -175 44 -49 -6 -57 782 131 442 106 609
146 1175 285 646 158 1238 295 1274 295 14 0 31 -19 59 -68 57 -96 306 -545
505 -907 201 -367 260 -457 370 -562 168 -159 349 -233 569 -233 308 1 479
141 563 460 38 146 45 311 45 1117 l0 733 23 5 c354 83 1113 272 1254 311 14
4 29 24 43 57 32 77 181 575 411 1368 l204 707 345 6 c190 3 428 9 529 14
l184 7 15 43 c18 54 7 83 -40 109 -30 17 -73 18 -553 20 -286 0 -529 -1 -540
-3z m-2070 -3209 c8 -579 -6 -1108 -31 -1225 -30 -142 -106 -249 -213 -299
-50 -23 -68 -26 -171 -26 -121 0 -169 11 -278 62 -179 84 -255 197 -779 1158
-211 386 -226 415 -219 422 4 4 883 225 1571 395 55 14 103 22 107 19 3 -3 9
-231 13 -506z"/>
<path d="M1360 2234 c-244 -47 -441 -148 -613 -313 -178 -171 -286 -361 -338
-596 -22 -97 -17 -322 9 -428 36 -143 97 -278 185 -407 46 -67 191 -214 266
-269 153 -114 348 -191 532 -212 421 -46 879 202 1093 592 106 193 156 428
106 492 -27 34 -73 44 -105 23 -34 -22 -40 -38 -75 -171 -55 -217 -133 -358
-269 -488 -246 -235 -601 -318 -921 -215 -142 46 -256 115 -369 222 -86 83
-139 158 -191 270 -59 126 -75 213 -75 401 1 187 14 251 80 390 227 481 839
668 1300 397 60 -35 116 -83 223 -189 125 -126 146 -143 175 -143 41 0 71 20
87 60 11 27 10 36 -14 83 -34 69 -160 205 -261 280 -103 77 -276 161 -401 193
-81 22 -126 27 -249 29 -82 2 -161 1 -175 -1z"/>
</g>
</svg>
